<?xml version="1.0" encoding="UTF-8" standalone="no"?>
<!-- Created with Inkscape (http://www.inkscape.org/) -->

<svg
   xmlns:dc="http://purl.org/dc/elements/1.1/"
   xmlns:cc="http://creativecommons.org/ns#"
   xmlns:rdf="http://www.w3.org/1999/02/22-rdf-syntax-ns#"
   xmlns:svg="http://www.w3.org/2000/svg"
   xmlns="http://www.w3.org/2000/svg"
   xmlns:sodipodi="http://sodipodi.sourceforge.net/DTD/sodipodi-0.dtd"
   xmlns:inkscape="http://www.inkscape.org/namespaces/inkscape"
   width="225"
   height="225"
   viewBox="0 0 59.53125 59.53125"
   version="1.1"
   id="svg21196"
   inkscape:version="0.92.2 (5c3e80d, 2017-08-06)"
   sodipodi:docname="Cancer.svg">
  <title
     id="title21767">Cancer</title>
  <defs
     id="defs21190" />
  <sodipodi:namedview
     id="base"
     pagecolor="#ffffff"
     bordercolor="#666666"
     borderopacity="1.0"
     inkscape:pageopacity="0.0"
     inkscape:pageshadow="2"
     inkscape:zoom="2"
     inkscape:cx="117.09506"
     inkscape:cy="132.47294"
     inkscape:document-units="mm"
     inkscape:current-layer="layer1"
     showgrid="false"
     units="px" />
  <metadata
     id="metadata21193">
    <rdf:RDF>
      <cc:Work
         rdf:about="">
        <dc:format>image/svg+xml</dc:format>
        <dc:type
           rdf:resource="http://purl.org/dc/dcmitype/StillImage" />
        <dc:title>Cancer</dc:title>
      </cc:Work>
    </rdf:RDF>
  </metadata>
  <g
     inkscape:label="Layer 1"
     inkscape:groupmode="layer"
     id="layer1"
     transform="translate(65.479012,-161.02763)">
    <g
       id="g9193"
       transform="translate(-9.8800166,9.8102018)">
      <path
         sodipodi:nodetypes="ssssscsccssssss"
         inkscape:connector-curvature="0"
         id="path21752"
         transform="matrix(0.26458333,0,0,0.26458333,-65.479012,141.18388)"
         d="m 155,75.998047 c -33.27879,0 -67.930085,11.952559 -84.945312,24.699223 -9.754534,7.30744 -16.371094,18.69101 -16.371094,31.74023 0,21.55408 17.645643,39.12305 39.248047,39.12305 21.602399,0 39.249999,-17.56897 39.249999,-39.12305 0,-14.96708 -8.51328,-28.00238 -20.94726,-34.576172 9.28413,-3.833206 26.62672,-6.96289 43.76562,-6.96289 28.06533,0 57.55193,6.179179 89,21.423832 V 93.884766 C 211.52029,80.448054 177.10087,75.998047 155,75.998047 Z M 92.931641,103.94336 c 15.882129,0 28.626949,12.70316 28.626949,28.49414 0,15.79098 -12.74482,28.50195 -28.626949,28.50195 -15.882135,0 -28.619141,-12.71097 -28.619141,-28.50195 0,-15.79098 12.737006,-28.49414 28.619141,-28.49414 z"
         style="color:#000000;font-style:normal;font-variant:normal;font-weight:normal;font-stretch:normal;font-size:medium;line-height:normal;font-family:sans-serif;font-variant-ligatures:normal;font-variant-position:normal;font-variant-caps:normal;font-variant-numeric:normal;font-variant-alternates:normal;font-feature-settings:normal;text-indent:0;text-align:start;text-decoration:none;text-decoration-line:none;text-decoration-style:solid;text-decoration-color:#000000;letter-spacing:normal;word-spacing:normal;text-transform:none;writing-mode:lr-tb;direction:ltr;text-orientation:mixed;dominant-baseline:auto;baseline-shift:baseline;text-anchor:start;white-space:normal;shape-padding:0;clip-rule:nonzero;display:inline;overflow:visible;visibility:visible;opacity:1;isolation:auto;mix-blend-mode:normal;color-interpolation:sRGB;color-interpolation-filters:linearRGB;solid-color:#000000;solid-opacity:1;vector-effect:none;fill:#6c6c6c;fill-opacity:1;fill-rule:nonzero;stroke:none;stroke-width:10.6239996;stroke-linecap:butt;stroke-linejoin:miter;stroke-miterlimit:4;stroke-dasharray:none;stroke-dashoffset:0;stroke-opacity:1;color-rendering:auto;image-rendering:auto;shape-rendering:auto;text-rendering:auto;enable-background:accumulate" />
      <path
         style="color:#000000;font-style:normal;font-variant:normal;font-weight:normal;font-stretch:normal;font-size:medium;line-height:normal;font-family:sans-serif;font-variant-ligatures:normal;font-variant-position:normal;font-variant-caps:normal;font-variant-numeric:normal;font-variant-alternates:normal;font-feature-settings:normal;text-indent:0;text-align:start;text-decoration:none;text-decoration-line:none;text-decoration-style:solid;text-decoration-color:#000000;letter-spacing:normal;word-spacing:normal;text-transform:none;writing-mode:lr-tb;direction:ltr;text-orientation:mixed;dominant-baseline:auto;baseline-shift:baseline;text-anchor:start;white-space:normal;shape-padding:0;clip-rule:nonzero;display:inline;overflow:visible;visibility:visible;opacity:1;isolation:auto;mix-blend-mode:normal;color-interpolation:sRGB;color-interpolation-filters:linearRGB;solid-color:#000000;solid-opacity:1;vector-effect:none;fill:#6c6c6c;fill-opacity:1;fill-rule:nonzero;stroke:none;stroke-width:2.81093311;stroke-linecap:butt;stroke-linejoin:miter;stroke-miterlimit:4;stroke-dasharray:none;stroke-dashoffset:0;stroke-opacity:1;color-rendering:auto;image-rendering:auto;shape-rendering:auto;text-rendering:auto;enable-background:accumulate"
         d="m -27.198145,200.67441 c 8.805014,0 17.9731682,-3.16244 22.4751137,-6.535 2.580887,-1.93343 4.33151849,-4.94533 4.33151849,-8.39793 0,-5.70286 -4.66874299,-10.35131 -10.38437819,-10.35131 -5.715635,0 -10.384896,4.64845 -10.384896,10.35131 0,3.96004 2.252472,7.40896 5.542296,9.14827 -2.456426,1.01421 -7.044986,1.84227 -11.579654,1.84227 -7.425618,0 -15.227281,-1.63491 -23.547916,-5.66839 v 4.87826 c 8.59359,3.55513 17.700395,4.73252 23.547916,4.73252 z m 16.422254,-7.39386 c -4.202147,0 -7.574214,-3.36104 -7.574214,-7.53907 0,-4.17803 3.372067,-7.54115 7.574214,-7.54115 4.2021474,0 7.5721469,3.36312 7.5721469,7.54115 0,4.17803 -3.3699995,7.53907 -7.5721469,7.53907 z"
         id="path21765"
         inkscape:connector-curvature="0"
         sodipodi:nodetypes="ssssscsccssssss" />
    </g>
  </g>
</svg>
