<?xml version="1.0" encoding="UTF-8" standalone="no"?>
<!-- Created with Inkscape (http://www.inkscape.org/) -->

<svg
   xmlns:dc="http://purl.org/dc/elements/1.1/"
   xmlns:cc="http://creativecommons.org/ns#"
   xmlns:rdf="http://www.w3.org/1999/02/22-rdf-syntax-ns#"
   xmlns:svg="http://www.w3.org/2000/svg"
   xmlns="http://www.w3.org/2000/svg"
   xmlns:sodipodi="http://sodipodi.sourceforge.net/DTD/sodipodi-0.dtd"
   xmlns:inkscape="http://www.inkscape.org/namespaces/inkscape"
   width="225"
   height="225"
   viewBox="0 0 59.53125 59.53125"
   version="1.1"
   id="svg6005"
   inkscape:version="0.92.2 (5c3e80d, 2017-08-06)"
   sodipodi:docname="Taurus.svg">
  <defs
     id="defs5999" />
  <sodipodi:namedview
     id="base"
     pagecolor="#ffffff"
     bordercolor="#666666"
     borderopacity="1.0"
     inkscape:pageopacity="0.0"
     inkscape:pageshadow="2"
     inkscape:zoom="1.979899"
     inkscape:cx="99.021344"
     inkscape:cy="129.79623"
     inkscape:document-units="mm"
     inkscape:current-layer="layer11"
     showgrid="false"
     units="px" />
  <metadata
     id="metadata6002">
    <rdf:RDF>
      <cc:Work
         rdf:about="">
        <dc:format>image/svg+xml</dc:format>
        <dc:type
           rdf:resource="http://purl.org/dc/dcmitype/StillImage" />
        <dc:title></dc:title>
      </cc:Work>
    </rdf:RDF>
  </metadata>
  <g
     inkscape:groupmode="layer"
     id="layer11"
     inkscape:label="Layer 1"
     transform="translate(0,-19.84375)">
    <path
       style="color:#000000;font-style:normal;font-variant:normal;font-weight:normal;font-stretch:normal;font-size:medium;line-height:normal;font-family:sans-serif;font-variant-ligatures:normal;font-variant-position:normal;font-variant-caps:normal;font-variant-numeric:normal;font-variant-alternates:normal;font-feature-settings:normal;text-indent:0;text-align:start;text-decoration:none;text-decoration-line:none;text-decoration-style:solid;text-decoration-color:#000000;letter-spacing:normal;word-spacing:normal;text-transform:none;writing-mode:lr-tb;direction:ltr;text-orientation:mixed;dominant-baseline:auto;baseline-shift:baseline;text-anchor:start;white-space:normal;shape-padding:0;clip-rule:nonzero;display:inline;overflow:visible;visibility:visible;opacity:1;isolation:auto;mix-blend-mode:normal;color-interpolation:sRGB;color-interpolation-filters:linearRGB;solid-color:#000000;solid-opacity:1;vector-effect:none;fill:#a25203;fill-opacity:1;fill-rule:nonzero;stroke:none;stroke-width:3.99573755;stroke-linecap:butt;stroke-linejoin:miter;stroke-miterlimit:4;stroke-dasharray:none;stroke-dashoffset:0;stroke-opacity:1;color-rendering:auto;image-rendering:auto;shape-rendering:auto;text-rendering:auto;enable-background:accumulate"
       d="m 7.0132678,24.122393 c -0.6106591,-0.008 -1.2624553,0.243396 -1.2624551,0.243396 h 0.038757 l -0.038757,3.520198 c 0.6372606,-0.09808 5.8709463,-0.750059 7.6455283,6.11849 2.194678,7.309145 8.492889,8.769974 9.136908,8.901781 -5.698625,2.719726 -9.652122,8.551566 -9.652122,15.280206 0,9.313069 7.571291,16.910079 16.865119,16.910079 9.293828,0 16.86357,-7.59701 16.86357,-16.910079 0,-6.723555 -3.946535,-12.551635 -9.637654,-15.274004 0.519422,-0.103153 6.943318,-1.516404 9.162748,-8.907983 1.774582,-6.868549 7.008268,-6.21657 7.645527,-6.11849 l -0.03876,-3.520198 h 0.03876 c 0,0 -0.651795,-0.251396 -1.262454,-0.243396 -4.398703,0.05765 -9.843198,4.865417 -10.540957,8.771557 -1.613051,4.812436 -7.107762,6.816358 -9.900171,7.500317 -1.543027,0.377941 -3.286451,0.312142 -4.622975,0 C 24.654266,39.740426 19.167278,37.706386 17.554227,32.89395 16.856468,28.98781 11.41197,24.180043 7.0132678,24.122393 Z M 29.746246,45.268389 c 7.12751,0 12.8695,5.757619 12.8695,12.918075 0,7.160453 -5.74199,12.916006 -12.8695,12.916006 -7.127507,0 -12.868979,-5.755553 -12.868981,-12.916006 0,-7.160456 5.741474,-12.918075 12.868981,-12.918075 z"
       id="path6562"
       inkscape:connector-curvature="0" />
  </g>
</svg>
